<svg xmlns="http://www.w3.org/2000/svg" viewBox="0 0 72 71"><path d="M55.5 62c.995-1.1 2.035-2 2.31-2 .275 0-.315.9-1.31 2-.995 1.1-2.035 2-2.31 2-.275 0 .315-.9 1.31-2zM23 60.5c-1.292-1.375-1.967-2.5-1.5-2.5.467 0-.242-1.203-1.576-2.673L17.5 52.654l3.75 2.792C23.313 56.98 25 58.66 25 59.178c0 .517.563.602 1.25.19.997-.6.999-.442.009.782-.683.844-.946 1.83-.584 2.192.362.362.437.658.166.658-.27 0-1.55-1.125-2.841-2.5Zm2 .122c0-.207-.787-.995-1.75-1.75-1.586-1.243-1.621-1.208-.378.378C24.18 60.916 25 61.445 25 60.622Zm30.605-4.512c-1.604-1.674-2.343-3.154-1.756-3.517a1.196 1.196 0 0 1 1.64.39c.346.56.299 1.017-.104 1.017-.404 0 .323 1.125 1.615 2.5s2.13 2.5 1.861 2.5c-.268 0-1.733-1.3-3.256-2.89zm-38.2-.36L15.5 53.5l2.25 1.905C19.864 57.195 20.455 58 19.655 58c-.19 0-1.202-1.012-2.25-2.25zm10.674-.333c.048-1.165.285-1.402.604-.605.289.722.253 1.585-.079 1.917-.332.332-.568-.258-.525-1.312zm12.48-1.949C39.49 52.661 39.099 52 39.686 52c.588 0 1.63.675 2.314 1.5 1.557 1.876 1.067 1.866-1.441-.032zm23.984-.399c-.317-.512-.193-1.167.274-1.456.467-.289.85.13.85.931 0 1.686-.316 1.833-1.124.525zM50.405 48.75 48.5 46.5l2.25 1.905C52.864 50.195 53.455 51 52.655 51c-.19 0-1.202-1.012-2.25-2.25zm6.095.33 2-2.42-2 .73c-1.605.584-1.753.48-.75-.53.853-.86 1.575-.935 2.274-.236.698.698.3 1.636-1.25 2.95L54.5 51.5Zm-32.5.527c0-.216.698-.661 1.552-.989.89-.341 1.291-.173.94.393-.586.95-2.492 1.406-2.492.596Zm-5.435-4.502c-.305-.493.096-1.145.89-1.45.963-.369 1.258-.07.887.896-.645 1.68-1.01 1.794-1.777.554zm28.93-1.114c-.987-1.597 3.422-6.004 5.93-5.928 1.946.06 1.931.122-.24.992-1.272.51-2.07 1.322-1.773 1.803.298.481-.304 1.64-1.336 2.573-1.324 1.199-2.085 1.364-2.581.56zm2.633-1.741c1.243-1.586 1.208-1.621-.378-.378C48.084 43.18 47.555 44 48.378 44c.207 0 .995-.787 1.75-1.75zM39 43.622c0-.207.787-.995 1.75-1.75 1.586-1.243 1.621-1.208.378.378C39.82 43.916 39 44.445 39 43.622Zm15.405-1.872L52.5 39.5l2.25 1.905C56.864 43.195 57.455 44 56.655 44c-.19 0-1.202-1.012-2.25-2.25zm-29.62-1.5c-.838-.963-1.3-2.375-1.025-3.14.306-.849.06-1.117-.63-.69-2.65 1.637-.844-1.25 2.12-3.39l3.25-2.347-2.184 2.409c-1.65 1.82-1.944 2.835-1.2 4.158.54.962.68 1.75.311 1.75-.37 0-.112.675.573 1.5 1.75 2.108.641 1.88-1.215-.25zm16.464-1.496c.199-.598 2.362-2.684 4.806-4.636L50.5 30.57l-2.937 3.216C45.948 35.553 45.025 37 45.513 37c1.426 0-1.338 2.357-3.06 2.61-.861.126-1.403-.26-1.204-.856zm-22.907-9.43c.372-.372-.34-1.834-1.583-3.25L14.5 23.5l2.72 2.395C19.596 27.99 20.112 30 18.273 30c-.334 0-.303-.304.068-.676zM54.468 23.9c-.367-1.155-.284-2.48.183-2.945.467-.465.897.48.955 2.1.126 3.477-.22 3.735-1.138.845zm-18.327-.4c.879-1.1 1.423-2.476 1.21-3.058-.214-.581.75-2.128 2.143-3.436 2.03-1.907 2.778-2.13 3.77-1.121.68.692.786 1.172.236 1.068-2.39-.454-2.745.159-.941 1.621 1.067.866 1.34 1.265.605.888-.807-.415-2.78.646-4.98 2.676-2.002 1.849-2.922 2.462-2.043 1.362Zm3.987-4.25c1.243-1.586 1.208-1.621-.378-.378C38.084 20.18 37.555 21 38.378 21c.207 0 .995-.787 1.75-1.75zm-25.356 2.658c.666-.876.979-1.824.695-2.108-.283-.283.13-1.051.92-1.706 2.695-2.237 2.565.603-.138 3.01-1.478 1.318-2.143 1.68-1.477.804zm11.664-.011c-.429-.694.061-1.8 1.161-2.62 1.047-.78 1.78-1.87 1.628-2.422-.15-.552.208-.705.799-.34.745.46.755 1.046.033 1.916-.572.69-.808 1.485-.524 1.769.283.283-.13 1.051-.92 1.706-1.11.922-1.603.92-2.177-.01zm-5.564-2.647c-1.243-1.586-1.208-1.621.378-.378C22.916 20.18 23.445 21 22.622 21c-.207 0-.995-.787-1.75-1.75zM6.015 15.869c-.008-.898 1.673-2.888 3.735-4.423 3.378-2.515 3.533-2.552 1.56-.369-1.204 1.333-2.216 2.76-2.25 3.173-.033.412-.347.712-.698.665-.351-.047-1.02.515-1.485 1.25-.662 1.045-.85.98-.862-.296zm24.39-1.119L28.5 12.5l2.25 1.905C32.864 16.195 33.455 17 32.655 17c-.19 0-1.202-1.012-2.25-2.25zm-13.895.266c-.345-.559-.307-1.016.086-1.016s-.143-.97-1.191-2.155L13.5 9.69l2.75 1.77c1.512.974 2.75 2.142 2.75 2.596 0 1.356-1.813 2.056-2.49.96zM21.5 13c.995-1.1 2.035-2 2.31-2 .275 0-.315.9-1.31 2-.995 1.1-2.035 2-2.31 2-.275 0 .315-.9 1.31-2zm-9.486-.414c.648-.648 1.324-.648 1.972 0 .647.647.31.985-.986.985-1.295 0-1.633-.338-.986-.985z" style="fill:#b8c3cf"/><path d="M52.536 65.059c-.37-.6-1.042-.864-1.492-.586-.45.278-1.373-.165-2.053-.984-.68-.819-.92-1.489-.536-1.489.385 0-1.354-2.348-3.863-5.217l-4.564-5.217 2.976-3.07 2.976-3.071-2.212-2.213L41.555 41l-3.677 4.25-3.677 4.251-2.35-2.066c-2.88-2.531-5.203-2.558-5.683-.066-.222 1.15.057 1.611.724 1.198.697-.43.85-.056.427 1.046-.383.997-.254 1.466.306 1.12 1.11-.686.207 9.77-.942 10.919-.396.395-2.47-.99-4.611-3.08-2.446-2.389-4.354-3.515-5.136-3.031-.835.515-.992.36-.478-.472.468-.757-.368-2.473-2.148-4.404-4.773-5.182-5.458-6.295-4.044-6.578 3.528-.707 12.581-.648 12.132.079-.286.463.496.686 1.738.496 3.155-.481 3.468-2.39.847-5.179l-2.23-2.375 3.62-4.229c3.401-3.974 3.52-4.339 1.968-6.054-2.243-2.478-3.384-2.301-5.965.926l-2.199 2.75-2.588-2.424C16.165 26.742 15 26.01 15 26.448c0 .438-.67.24-1.489-.439-.819-.68-1.285-1.566-1.036-1.97.25-.403-.88-2.011-2.51-3.573C8.333 18.904 7 17.224 7 16.734 7 15.422 17.13 4.001 19.344 2.816c1.077-.576 1.644-.606 1.312-.069-.322.52.79 2.253 2.472 3.85s4.425 4.617 6.095 6.712l3.038 3.809-2.835 2.959-2.835 2.959 2.18 2.18 2.18 2.179 2.48-2.33c1.364-1.282 2.388-2.608 2.275-2.948-.113-.34.065-.617.396-.617s2.518-1.731 4.86-3.847c3.624-3.274 4.727-3.756 7.399-3.234 1.726.338 3.677.682 4.333.764.657.083 1.171.413 1.142.734C53.722 17.185 55.273 21 55.902 21c.368 0 .67.867.67 1.927s-.354 1.708-.786 1.44c-.432-.267-.786.156-.786.94 0 .782-.844 2.496-1.876 3.808-1.032 1.312-2.044 2.835-2.25 3.385-.206.55-.645.91-.976.8-.33-.11-2.112 1.358-3.959 3.263l-3.357 3.463 2.191 2.192 2.191 2.19 2.769-2.652c2.42-2.32 7.34-3.342 6.44-1.338-.18.4 1.958 3.142 4.75 6.095C63.716 49.465 66 52.13 66 52.437c0 .307-1.526 2.246-3.39 4.31-1.865 2.064-3.44 4.09-3.5 4.503-.06.412-.299.637-.53.5-.23-.138-1.533.796-2.894 2.075-1.606 1.51-2.712 1.942-3.15 1.234zm3.471-2.568c.671-.808 1.542-1.27 1.936-1.026 1.748 1.08.196-3.688-1.94-5.963l-2.371-2.523-2.809 2.69c-2.52 2.414-2.654 2.86-1.315 4.34 1.77 1.955 1.974 3.407.337 2.396-.634-.393-.895-.296-.58.216.948 1.532 5.434 1.446 6.742-.13zM27 55.382c0-2.71-.393-4.257-.989-3.89-.546.339-.745-.022-.444-.805.765-1.994-5.144-6.69-8.394-6.672-6.098.035-5.916 1.429 1.23 9.413 3.73 4.167 7.19 7.324 7.689 7.015.5-.308.908-2.586.908-5.061Zm37.395-3.551c-.293-.475-1.022-.562-1.619-.193-.597.37-.801.212-.454-.35.347-.561-.301-1.864-1.44-2.895-2.038-1.844-2.11-1.83-4.515.967-1.91 2.22-2.192 3.145-1.292 4.23.633.763 1.52 1.16 1.97.883.449-.278 1.142.021 1.54.665.495.8.28.903-.68.325-1.206-.727-1.206-.602 0 .884 1.312 1.617 1.59 1.554 4.214-.961 1.546-1.48 2.57-3.08 2.276-3.555zm-14.383 2.656c1.876-1.996 2.107-2.768 1.125-3.75-.68-.68-1.777-1.257-2.437-1.282-.66-.025-1.087-.588-.95-1.25.44-2.125-2.189-1.226-4.104 1.402-1.823 2.503-1.816 2.583.425 4.968 2.824 3.007 3.037 3.004 5.941-.088zm5.9-5.893c1.99-2.12 2.105-2.684.961-4.75-.714-1.289-1.233-2.588-1.155-2.886.396-1.498-3.772-.555-5.376 1.216-1.711 1.89-2.773 7.21-1.25 6.27.374-.232 1.237.248 1.917 1.067 1.664 2.005 2.262 1.893 4.902-.917zm-18.502-4.5c1.532-1.6 2.741-3.174 2.688-3.5-.054-.327.174-.546.506-.488.332.058 2.497-1.752 4.81-4.022 2.315-2.271 4.59-3.781 5.057-3.357.467.425.505.177.085-.551-.468-.809.094-2.24 1.444-3.676 1.215-1.294 1.91-2.835 1.546-3.426-.365-.59-.187-1.074.395-1.074.582 0 1.059-.702 1.059-1.559s-.445-1.284-.989-.948c-.543.336-.758.012-.477-.72.28-.732-.062-2.08-.762-2.997-1.568-2.054-6.72-3.461-6.897-1.884-.069.61-.21 1.67-.313 2.358-.104.688.472 2.038 1.28 3 .837.998 1.007 1.75.396 1.75-.589 0-1.973-1.237-3.074-2.75L42.16 17.5l-2.405 2.26c-1.322 1.242-2.78 1.917-3.24 1.5-.46-.418-.547-.252-.193.368.354.62-1.088 3.095-3.204 5.5-2.117 2.405-4.022 4.822-4.234 5.372-.212.55-.669.905-1.016.79-.347-.116-1.439.682-2.426 1.773-1.418 1.567-1.538 2.242-.57 3.21.675.675 1.654 1.227 2.177 1.227.522 0 .906.38.852.843C27.793 41.29 33.025 47 34 47c.344 0 1.879-1.308 3.41-2.907zM22.402 24.841c-.303-.49-.18-.827.274-.748 2.21.383 2.285-.34.324-3.094-1.175-1.65-2.639-3-3.254-3-2.026 0-5.625 4.15-5.004 5.77.426 1.11.217 1.323-.727.74-.887-.55-1.085-.433-.6.352.398.644 1.082.949 1.52.678.439-.271 1.606.4 2.594 1.492 1.672 1.847 1.92 1.87 3.61.342.997-.903 1.566-2.042 1.263-2.532zm-7.96-4.936c-.325-.525-.065-.832.577-.68.642.15 1.682-.509 2.312-1.465.94-1.428.655-2.23-1.593-4.477L13 10.545l-2.707 2.707-2.707 2.707 2.86 2.985c2.56 2.672 5.488 3.377 3.996.962zm14.564-.413 2.355-2.506-2.857-2.983c-2.669-2.785-4.004-3.092-4.004-.92 0 .504-.268.803-.596.666-.328-.138-1.346.372-2.263 1.133-1.267 1.051-1.396 1.707-.54 2.739.62.746 1.637 1.064 2.262.707.625-.357.803-.281.396.169-.756.834.912 3.502 2.19 3.502.386 0 1.762-1.128 3.057-2.507zm-2.134-5.243c-1.243-1.586-1.208-1.621.378-.378C28.916 15.18 29.445 16 28.622 16c-.207 0-.995-.787-1.75-1.75zm17.795 3.25c0-.825-.375-1.5-.834-1.5-.998 0-1.098 1.401-.166 2.333.927.927 1 .866 1-.833zM21.51 13.984c.346-.56.952-.817 1.347-.572 1.766 1.09.807-4.188-1.212-6.676L19.402 3.97 16.52 6.98l-2.88 3.007 2.355 2.506c2.483 2.644 4.471 3.181 5.516 1.49zm-10.177 45.56c0-.8.383-1.22.85-.93.467.288.59.943.274 1.455-.808 1.308-1.124 1.161-1.124-.525z" style="fill:#afbccc"/><path d="M44.924 59.25 42.5 56.5l2.75 2.424c1.512 1.334 2.75 2.571 2.75 2.75 0 .785-.81.146-3.076-2.424zM62 58.5c1.292-1.375 2.574-2.5 2.849-2.5.275 0-.557 1.125-1.849 2.5-1.292 1.375-2.574 2.5-2.849 2.5-.275 0 .557-1.125 1.849-2.5Zm-12-.878c0-.207.787-.995 1.75-1.75 1.586-1.243 1.621-1.208.378.378C50.82 57.916 50 58.445 50 57.622ZM12.924 51.25 10.5 48.5l2.75 2.424c1.512 1.334 2.75 2.571 2.75 2.75 0 .785-.81.146-3.076-2.424zm46.948-2c-1.243-1.586-1.208-1.621.378-.378.963.755 1.75 1.543 1.75 1.75 0 .823-.821.294-2.128-1.372zm-29.467-1.5L28.5 45.5l2.25 1.905c1.238 1.048 2.25 2.06 2.25 2.25 0 .8-.805.21-2.595-1.905zM37 47.5c1.292-1.375 2.574-2.5 2.849-2.5.275 0-.557 1.125-1.849 2.5-1.292 1.375-2.574 2.5-2.849 2.5-.275 0 .557-1.125 1.849-2.5Zm-22.926.089c-.902-1.087-.873-1.583.127-2.16.715-.412.965-.381.558.069-.408.45-.24 1.422.372 2.16.613.738.889 1.342.614 1.342s-1.027-.635-1.671-1.411zm15.798-5.339c-1.243-1.586-1.208-1.621.378-.378C31.916 43.18 32.445 44 31.622 44c-.207 0-.995-.787-1.75-1.75zm28 0c-1.243-1.586-1.208-1.621.378-.378.963.755 1.75 1.543 1.75 1.75 0 .823-.821.294-2.128-1.372zM30 31.687c0-.172 1.462-1.635 3.25-3.25L36.5 25.5l-2.937 3.25C30.825 31.78 30 32.46 30 31.687Zm22-.065c0-.207.787-.995 1.75-1.75 1.586-1.243 1.621-1.208.378.378C52.82 31.916 52 32.445 52 31.622ZM9.405 21.75 7.5 19.5l2.25 1.905C11.864 23.195 12.455 24 11.655 24c-.19 0-1.202-1.012-2.25-2.25Zm37.407-5.433c.722-.289 1.585-.253 1.917.079.332.332-.258.568-1.312.525-1.165-.048-1.402-.285-.605-.604zM16 8.622c0-.207.787-.995 1.75-1.75 1.586-1.243 1.621-1.208.378.378C16.82 8.916 16 9.445 16 8.622Zm5.872-4.372c-1.243-1.586-1.208-1.621.378-.378.962.755 1.75 1.543 1.75 1.75 0 .823-.821.294-2.128-1.372Z" style="fill:#90a3ae"/><path d="M55.564 58.293c-.542-1.425-.428-1.54.56-.56.684.679.99 1.486.683 1.793-.308.308-.867-.247-1.243-1.233zm.436-6.67c0-.208.787-.996 1.75-1.75 1.586-1.244 1.621-1.21.378.377C56.82 51.916 56 52.445 56 51.622Zm-17-1c0-.208.787-.996 1.75-1.75 1.586-1.244 1.621-1.21.378.377C39.82 50.916 39 51.445 39 50.622Zm22.405-4.873L59.5 43.5l2.25 1.905C63.864 47.195 64.455 48 63.655 48c-.19 0-1.202-1.012-2.25-2.25zm-45.593-.433c.722-.289 1.585-.253 1.917.079.332.332-.258.568-1.312.525-1.165-.048-1.402-.285-.605-.604zm16.593-.472c-.452-.73-.274-.882.484-.413.66.407 1.966.139 2.905-.596 1.537-1.203 1.57-1.162.334.414-1.596 2.035-2.723 2.215-3.723.595zm21.467-1.595c-1.243-1.586-1.208-1.621.378-.378.963.755 1.75 1.543 1.75 1.75 0 .823-.821.294-2.128-1.372zM23 28.622c0-.207.787-.995 1.75-1.75 1.586-1.243 1.621-1.208.378.378C23.82 28.916 23 29.445 23 28.622Zm7-3.015c0-.216.698-.661 1.552-.989.89-.341 1.291-.173.94.393-.586.95-2.492 1.406-2.492.596ZM37.5 24c.995-1.1 2.035-2 2.31-2 .275 0-.315.9-1.31 2-.995 1.1-2.035 2-2.31 2-.275 0 .315-.9 1.31-2zm-17.095-3.25L18.5 18.5l2.25 1.905C22.864 22.195 23.455 23 22.655 23c-.19 0-1.202-1.012-2.25-2.25zm5-13L23.5 5.5l2.25 1.905C27.864 9.195 28.455 10 27.655 10c-.19 0-1.202-1.012-2.25-2.25zM15 4.5C16.292 3.125 17.574 2 17.849 2c.275 0-.557 1.125-1.849 2.5C14.708 5.875 13.426 7 13.151 7c-.275 0 .557-1.125 1.849-2.5Z" style="fill:#6890a8"/><path d="M7 68c0-.55.45-1 1-1s1 .45 1 1-.45 1-1 1-1-.45-1-1Zm39.159-5.413C42.77 59.059 40 55.727 40 55.184c0-.544 3.012 2.13 6.693 5.943l6.693 6.933 6.307-6.251C63.162 58.37 66 55.982 66 56.499 66 57.844 54.789 69 53.44 69c-.618 0-3.894-2.886-7.281-6.413ZM22 63c-1.175-1.65-3.006-3-4.068-3-2.101 0-2.588-1.477-.842-2.556.6-.37 2.81 1.005 4.91 3.056s4.305 3.43 4.898 3.063c.668-.413.852-.076.484.885-.925 2.41-3.04 1.841-5.382-1.448Zm-11 1c0-.55.45-1 1-1s1 .45 1 1-.45 1-1 1-1-.45-1-1zm40.65-7.167c.913-1.008 1.8-1.833 1.97-1.833.17 0 .751.825 1.29 1.833.85 1.586.583 1.834-1.968 1.834-2.798 0-2.864-.095-1.291-1.834zM12 52.5c-1.288-1.37-2.116-2.717-1.841-2.992.275-.275 1.553.621 2.841 1.992 1.288 1.37 2.116 2.717 1.841 2.992-.275.275-1.553-.621-2.841-1.992Zm19.521-1.476c-.983-1.087-2.178-1.736-2.655-1.441-.476.294-.866-.476-.866-1.711 0-2.187.079-2.17 3.008.636l3.008 2.882 3.99-3.897c3.107-3.033 4.257-3.63 5.193-2.694.935.935.868 1.201-.303 1.201-.827 0-3.03 1.575-4.896 3.5-3.958 4.083-4.126 4.123-6.479 1.524zM44 52.244c0-.55.675-1.56 1.5-2.244 1.197-.993 1.803-.993 3 0 .825.685 1.5 1.695 1.5 2.245 0 .558-.663.45-1.5-.245-1.197-.993-1.803-.993-3 0-.837.694-1.5.803-1.5.245zm13.688-1.452c1.529-1.69 1.758-1.699 3.474-.145 1.011.915 1.838 1.728 1.838 1.808 0 .08-1.563.145-3.474.145-3.288 0-3.386-.097-1.838-1.808zm-34.646-.241c-.684-.824-2.778-1.786-4.654-2.138-4.402-.826-5.39-2.413-1.503-2.413 2.98 0 9.21 4.233 8.008 5.44-.335.334-1.167-.066-1.851-.89zm31.445-4.572c-.392-.634-1.562-.931-2.6-.66-2.197.575-2.48-.581-.539-2.193 1.029-.854 1.778-.644 3.16.884.998 1.101 1.56 2.254 1.253 2.563-.309.308-.882.04-1.274-.594zm-31.31-4.067c-.723-1.158-1.124-2.299-.889-2.534.694-.693 2.932 2.461 2.553 3.598-.191.574-.94.095-1.664-1.064zM45.02 40.59c-.01-.5 2.455-3.504 5.48-6.675 3.025-3.172 5.5-5.31 5.5-4.753 0 1.271-10.952 12.67-10.98 11.428Zm-18.886-3.238c.201-.632 3.785-4.718 7.964-9.08l7.598-7.932 3.248 2.901c1.786 1.596 2.977 3.171 2.648 3.5-.33.33-1.735-.466-3.123-1.77l-2.523-2.37-8.089 7.95c-4.449 4.372-7.924 7.432-7.723 6.8zm-13.41-10.127C9.024 23.499 6 20.023 6 19.502c0-.522 3.142 2.17 6.981 5.98l6.982 6.928 3.025-2.899c2.344-2.245 3.294-2.629 4.219-1.704.924.924.85 1.193-.333 1.193-.839 0-2.582 1.125-3.874 2.5-1.292 1.375-2.62 2.5-2.951 2.5-.332 0-3.628-3.049-7.326-6.775Zm7.803-4.181c-.325-.526-1.252-.703-2.059-.393-1.699.652-2.006-1.2-.367-2.213.605-.375 2.055.274 3.222 1.44C22.49 23.046 22.921 24 22.281 24c-.64 0-1.429-.43-1.754-.956ZM29 23.31c0-.55.9-1.815 2-2.81 1.1-.995 2-1.36 2-.81s-.9 1.815-2 2.81c-1.1.995-2 1.36-2 .81zm19.5-3.764c-3.623-1.838-3.775-2.062-1.615-2.375 1.439-.208 3.202.472 4.444 1.714 2.84 2.84 1.898 3.06-2.829.661zm-33.421-2.413c-.052-.907-.919-1.206-2.579-.888-2.84.543-3.23-.394-.95-2.287 1.277-1.06 1.826-1.01 3.116.28.861.86 1.324 2.172 1.029 2.914-.446 1.119-.55 1.116-.616-.019zm12.412-.147c-.425-.688-1.756-.885-3.323-.492-2.603.653-2.606.647-.704-1.454l1.91-2.11 2.007 2.007c1.105 1.104 1.74 2.275 1.414 2.602-.327.327-.914.078-1.304-.553zM16 10.245c0-.55.675-1.56 1.5-2.245 1.197-.993 1.803-.993 3 0 .825.685 1.5 1.695 1.5 2.245 0 .558-.663.45-1.5-.245-1.197-.993-1.803-.993-3 0-.837.694-1.5.803-1.5.245Z" style="fill:#2e6c91"/><path d="M45.581 63.79c-3.79-4.153-6.554-8.076-6.518-9.25.055-1.773.193-1.713 1.05.46 1.125 2.856 11.781 14 13.387 14C54.97 69 66 57.725 66 56.221c0-.672.45-1.221 1-1.221s1 .442 1 .981C68 57.496 54.926 71 53.46 71c-.714 0-4.26-3.245-7.879-7.21ZM5.543 69.07a1.098 1.098 0 0 1 .355-1.507c.512-.317 1.133-.01 1.38.68.65 1.82 1.79.397 2.113-2.634C9.71 62.632 11 60.806 11 63.333c0 .917.45 1.667 1 1.667s1-.873 1-1.941.43-2.207.956-2.532c1.333-.823.208-3.445-3.147-7.337-1.569-1.82-2.536-3.823-2.148-4.45.492-.797.846-.704 1.17.31.257.797 1.494 2.685 2.749 4.195 1.255 1.51 2.568 3.647 2.918 4.75C15.848 59.098 16.974 60 18 60c1.026 0 2.826 1.35 4.001 3 2.831 3.976 4.461 3.783 6.342-.75.855-2.063 1.578-2.984 1.606-2.047.087 2.873-2.177 6.797-3.921 6.797-.91 0-2.946-1.35-4.527-3-3.208-3.349-7.364-4.083-7.139-1.26.077.956-.846 2.176-2.05 2.71-1.203.534-2.398 1.776-2.656 2.76-.493 1.887-3.136 2.439-4.112.86zm46.892-7.176c-.455-.735-.322-.942.341-.532.597.369 1.368.213 1.714-.346.355-.574-.355-1.016-1.631-1.016-1.554 0-1.937-.322-1.226-1.033 1.08-1.08 4.367-.315 4.367 1.018 0 .423-.635 1.297-1.411 1.941-1.08.897-1.585.89-2.154-.032zM24 54.728c-.836-1.8-3.048-4.02-5-5.02-3.473-1.778-3.477-1.787-.5-1.212 3.47.67 7.5 4.732 7.5 7.56 0 2.612-.245 2.45-2-1.328zm7.49-1.744c-.346-.56-.954-.815-1.352-.57-.397.246-.793-.478-.878-1.608-.15-1.993-.08-1.985 2.308.258l2.462 2.313 3.777-3.689c5.11-4.99 6.602-4.716 1.693.312-3.826 3.918-6.758 5.01-8.01 2.984zm13.831-.448c.19-.57.946-1.036 1.679-1.036.733 0 1.489.466 1.679 1.036.19.57-.566 1.035-1.679 1.035s-1.868-.466-1.679-1.035zm12.256.339C57.875 52.394 58.74 52 59.5 52s1.625.394 1.923.875c.297.481-.568.875-1.923.875s-2.22-.394-1.923-.875zm7.295-3.625c-1.243-1.586-1.208-1.621.378-.378C66.916 50.18 67.445 51 66.622 51c-.207 0-.995-.787-1.75-1.75zm-13.527-1.793c-.326-.849-.33-1.804-.012-2.124.83-.829 3.667.413 3.667 1.604 0 .55-.749.713-1.664.362-1.119-.43-1.427-.256-.941.531.398.644.457 1.17.133 1.17-.325 0-.857-.694-1.183-1.543ZM22.25 43.28c-.688-.246-1.247-1.647-1.244-3.113l.006-2.667 1.512 2.899c1.648 3.16 1.611 3.554-.274 2.88zm-6.438-1.963c.722-.289 1.585-.253 1.917.079.332.332-.258.568-1.312.525-1.165-.048-1.402-.285-.605-.604zM46 41.203c0-.438 1.852-2.576 4.115-4.75s4.72-5.303 5.46-6.953c1.033-2.301 1.356-2.534 1.385-1 .042 2.152-8.343 13.5-9.975 13.5-.542 0-.985-.359-.985-.797Zm-18.956-2.728c-.024-.564 3.32-4.366 7.43-8.449l7.474-7.424 2.34 2.2c2.828 2.655 3.428 2.722 4.023.448.344-1.317.486-1.193.573.5.137 2.652-2.916 3.121-4.884.75-.685-.825-1.752-1.505-2.372-1.512-.62-.006-4.146 3.256-7.834 7.25-3.689 3.994-6.727 6.8-6.75 6.237zm-7.544-3.43c-3.725-1.52-14.51-13.692-14.364-16.208.122-2.099.178-2.126.547-.264.225 1.14 3.53 5.17 7.345 8.955l6.935 6.882 3.008-2.882c3.902-3.739 5.033-2.643 1.35 1.307-2.179 2.338-3.276 2.84-4.821 2.21zM47.5 31c.995-1.1 2.035-2 2.31-2 .275 0-.315.9-1.31 2-.995 1.1-2.035 2-2.31 2-.275 0 .315-.9 1.31-2zm-29.833-5.667c-1.066-1.065-.778-2.076.76-2.667.785-.3 2.019.166 2.742 1.038 1.155 1.392 1.028 1.493-1.052.833-1.63-.517-2.154-.406-1.683.356.753 1.22.282 1.49-.767.44zm34.449-.5c-.064-.916-1.353-2.59-2.866-3.718-1.512-1.128-2.237-2.066-1.61-2.083 2.275-.064 5.592 3.534 5.088 5.518-.38 1.494-.523 1.56-.612.283zM30 24.214c0-.603.482-1.394 1.07-1.757.589-.364 1.46-1.628 1.937-2.81.864-2.142.866-2.142.93-.052.034 1.152-.837 2.91-1.937 3.905-1.1.995-2 1.317-2 .714zm-16-6.321c0-.609-.675-.848-1.5-.531-.825.316-1.5.14-1.5-.393S11.9 16 13 16c1.111 0 2 .667 2 1.5 0 .825-.225 1.5-.5 1.5s-.5-.498-.5-1.107Zm11 .082c-2.211-.619-2.29-.789-.683-1.47 1.048-.444 2.29-.298 2.934.346 1.54 1.54.713 1.953-2.251 1.124zm-5.386-5.399c.593-1.554.396-1.794-1.024-1.249-1.137.436-1.617.255-1.361-.514.218-.653.93-1.366 1.583-1.584 1.69-.563 2.688 2.673 1.262 4.088-.921.914-1.026.745-.46-.74zm9.258-1.326c-1.243-1.586-1.208-1.621.378-.378.963.755 1.75 1.543 1.75 1.75 0 .823-.821.294-2.128-1.372zM10 9.622c0-.207.787-.995 1.75-1.75 1.586-1.243 1.621-1.208.378.378C10.82 9.916 10 10.445 10 9.622Z" style="fill:#214f6b"/></svg>